<mxfile host="app.diagrams.net" agent="Mozilla/5.0 (Macintosh; Intel Mac OS X 10_15_7) AppleWebKit/605.1.15 (KHTML, like Gecko) Version/17.5 Safari/605.1.15" version="26.2.8">
  <diagram name="Page-1" id="VdUdCAZFPob1FGJ-weKo">
    <mxGraphModel dx="585" dy="591" grid="0" gridSize="10" guides="1" tooltips="1" connect="1" arrows="1" fold="1" page="0" pageScale="1" pageWidth="850" pageHeight="1100" math="0" shadow="0">
      <root>
        <mxCell id="0" />
        <mxCell id="1" parent="0" />
        <mxCell id="SVZKJTotKNkgLv5dAi7p-93" value="&lt;h1 style=&quot;margin-top: 0px;&quot;&gt;Functional&lt;/h1&gt;&lt;p&gt;&lt;/p&gt;&lt;ul&gt;&lt;li&gt;Fast response time &amp;lt; 100 ms&lt;br&gt;&lt;/li&gt;&lt;li&gt;Most relevant by popularity&lt;br&gt;&lt;/li&gt;&lt;/ul&gt;&lt;p&gt;&lt;/p&gt;" style="text;html=1;whiteSpace=wrap;overflow=hidden;rounded=0;" parent="1" vertex="1">
          <mxGeometry x="140" y="277" width="239" height="120" as="geometry" />
        </mxCell>
        <mxCell id="_Xknqcp8Q2KG7VRMnHkf-2" value="&lt;h1 style=&quot;margin-top: 0px;&quot;&gt;Technical&lt;/h1&gt;&lt;p&gt;&lt;/p&gt;&lt;ul&gt;&lt;li&gt;Scalable for high traffic volume&lt;br&gt;&lt;/li&gt;&lt;li&gt;Highly available&lt;br&gt;&lt;/li&gt;&lt;/ul&gt;&lt;p&gt;&lt;/p&gt;" style="text;html=1;whiteSpace=wrap;overflow=hidden;rounded=0;" vertex="1" parent="1">
          <mxGeometry x="434" y="274" width="239" height="120" as="geometry" />
        </mxCell>
        <mxCell id="_Xknqcp8Q2KG7VRMnHkf-3" value="Search Autocomplete System" style="text;strokeColor=none;fillColor=none;html=1;fontSize=24;fontStyle=1;verticalAlign=middle;align=center;" vertex="1" parent="1">
          <mxGeometry x="348" y="201" width="100" height="40" as="geometry" />
        </mxCell>
        <mxCell id="_Xknqcp8Q2KG7VRMnHkf-5" value="&lt;h1 style=&quot;margin-top: 0px;&quot;&gt;Scale&lt;/h1&gt;&lt;p&gt;&lt;/p&gt;&lt;ul&gt;&lt;li&gt;DAU - 10&lt;sup&gt;8&amp;nbsp;&lt;/sup&gt;&lt;/li&gt;&lt;li&gt;Each user ~ 10 queries/day&lt;/li&gt;&lt;li&gt;Each query ~ 20 bytes ~ 20 requests&lt;/li&gt;&lt;li&gt;QPS = 10&lt;sup&gt;8 &amp;nbsp;&lt;/sup&gt;* 10 * 20 / 10&lt;sup&gt;5 &lt;/sup&gt;= 2 * 10&lt;sup&gt;5&lt;/sup&gt;&amp;nbsp;&lt;/li&gt;&lt;/ul&gt;&lt;p&gt;&lt;/p&gt;" style="text;html=1;whiteSpace=wrap;overflow=hidden;rounded=0;" vertex="1" parent="1">
          <mxGeometry x="721" y="268" width="291" height="131" as="geometry" />
        </mxCell>
      </root>
    </mxGraphModel>
  </diagram>
</mxfile>
